<svg xmlns="http://www.w3.org/2000/svg" viewBox="0 0 88.1 113"><defs><style>.cls-1{fill:#fff;}.cls-2{fill:#ffea94;}</style></defs><title>Light</title><g id="Livello_2" data-name="Livello 2"><g id="Livello_1-2" data-name="Livello 1"><g id="Light"><rect class="cls-1" x="1.92" y="0.19" width="86.19" height="18.77" rx="9.38"/><rect class="cls-1" x="1.92" y="44.19" width="86.19" height="18.77" rx="9.38"/><rect class="cls-1" x="1.92" y="94.1" width="86.19" height="18.77" rx="9.38"/><path class="cls-2" d="M51.59,0H6.12C2.74,0,0,3,0,6.7v5.75c0,3.7,2.74,6.7,6.12,6.7H51.59C57.86,19.15,63,24.73,63,31.6S57.86,44.05,51.59,44.05H6.12c-3.38,0-6.12,3-6.12,6.7V106.3C0,110,2.74,113,6.12,113h5.25c3.38,0,6.12-3,6.12-6.7V63.2h34.1c15.93,0,28.85-14.15,28.85-31.6S67.52,0,51.59,0Z"/></g></g></g></svg>